<svg xmlns="http://www.w3.org/2000/svg" width="16" height="16">
<!--

Copyright (C) 2018 Stasiek Michalski <hellcp@opensuse.org>

This image is freely licensed under the terms of Creative
Commons Attribution-ShareAlike 4.0 International license.
You can read terms of the license on:
https://creativecommons.org/licenses/by-sa/4.0/legalcode

-->
  <path opacity="1" fill="#ffffff" d="M 2 2 L 2 14 L 3 14 L 3 16 L 13 16 L 13 14 L 14 14 L 14 2 L 2 2 z " />
  <path d="M 2 0 C 0.892 0 0 0.892 0 2 L 0 14 C 0 15.108 0.892 16 2 16 L 3 16 L 3 14 L 2 14 L 2 2 L 14 2 L 14 2.8789062 L 8 8.8789062 L 5.0605469 5.9394531 L 2.9394531 8.0605469 L 8 13.121094 L 14 7.1210938 L 14 14 L 13 14 L 13 16 L 14 16 C 15.108 16 16 15.108 16 14 L 16 5.1210938 L 16 3 L 16 2 C 16 0.892 15.108 0 14 0 L 2 0 z M 4 14 L 4 15 L 4 16 L 5 16 L 6 16 L 6 15 L 6 14 L 5 14 L 4 14 z M 7 14 L 7 15 L 7 16 L 8 16 L 9 16 L 9 15 L 9 14 L 8 14 L 7 14 z M 10 14 L 10 15 L 10 16 L 11 16 L 12 16 L 12 15 L 12 14 L 11 14 L 10 14 z " fill="#241f31" />
  <path d="M 14 2.8789062 L 8 8.8789062 L 5.0605469 5.9394531 L 2.9394531 8.0605469 L 8 13.121094 L 14 7.1210938 L 14 2.8789062 z " class="success" fill="#33d17a" />
</svg>
