<svg width="75.5" height="38.09" viewBox="0 0 75.5 38.09" xmlns="http://www.w3.org/2000/svg"><path d="M71.313 13.461a1.232 1.232 0 0 1-1.35 0 1.233 1.233 0 0 1-.193-1.896 1.203 1.203 0 0 1 1.735 0c.534.533.47 1.455-.192 1.896m1.934-2.687c.77 3.284-2.177 6.237-5.457 5.465a4.574 4.574 0 0 1-3.388-3.39c-.769-3.282 2.179-6.233 5.457-5.464a4.572 4.572 0 0 1 3.388 3.39m-22.083 17.66c.374.54.686 1.06.86 1.581.125.37.283.858.648 1.054.02.011.038.021.06.027.669.244 2.39.203 2.39.203h3.165c.27.004 2.648-.003 2.588-.269-.287-1.273-1.757-1.5-2.876-2.167-1.032-.616-2.01-1.314-2.454-2.515-.232-.62-.095-2.05.304-2.57.29-.378.719-.628 1.18-.729.51-.109 1.039-.015 1.55.037.628.064 1.25.178 1.877.256 1.21.158 2.432.221 3.653.188 2.014-.056 4.033-.377 5.943-1.029 1.333-.448 2.646-1.054 3.78-1.897 1.288-.959.95-.869-.357-.735a29.29 29.29 0 0 1-4.71.091c-1.464-.085-2.908-.258-4.233-.939-1.042-.539-1.938-1.079-2.765-1.914-.124-.126-.2-.494.026-.729.22-.228.685-.096.828.026 1.442 1.207 3.593 2.201 5.82 2.31 1.205.06 2.376.081 3.581.03.603-.029 1.511-.025 2.116-.03.311-.005 1.161.085 1.32-.246.048-.096.044-.207.04-.315-.177-4.826-.533-10.269-5.577-12.576C66.158 3.856 60.517 1.187 58.134.08c-.552-.263-1.199.153-1.199.77 0 1.611.082 3.927.083 6.035-1.141-1.164-3.064-1.899-4.529-2.573a42.882 42.882 0 0 0-5.129-1.957C43.842 1.265 40.2.592 36.538.228a41.37 41.37 0 0 0-12.466.63C17.337 2.256 10.717 5.5 5.692 10.242 2.605 13.152.185 17.29.021 21.488c-.234 5.943 1.429 9.134 4.485 12.423 4.873 5.242 15.362 5.976 19.61-.24 1.912-2.798 2.327-6.593.94-9.686-1.388-3.09-4.576-5.325-7.957-5.439-2.623-.087-5.419 1.25-6.424 3.678-.767 1.855-.33 4.147 1.066 5.587.545.562 1.282 1.022 2.086.842.475-.106.871-.463.943-.945.106-.71-.515-1.172-.898-1.718-.69-.985-.55-2.464.314-3.3.729-.708 1.809-.917 2.823-.914.945.002 1.91.171 2.726.648 1.145.675 1.906 1.911 2.17 3.217.786 3.903-2.383 7.074-6.68 7.323-2.197.13-4.435-.448-6.15-1.83-4.345-3.5-5.41-10.655-.444-14.474 4.715-3.625 10.667-2.69 14.177-.807 2.808 1.507 4.901 3.973 6.487 6.7.796 1.37 1.474 2.803 2.103 4.258.605 1.4 1.172 2.81 2.383 3.834.802.68 1.792.656 2.842.656h5.997c.815 0 .616-.544.265-.904-.795-.814-1.937-.998-2.995-1.289-2.418-.666-2.171-3.87-1.502-3.87 2.161 0 2.229.064 4.122.04 2.733-.038 3.56-.197 5.697.594 1.142.424 2.24 1.542 2.956 2.564" fill="#30ba78" style="stroke-width:.999339"/></svg>
