<svg width="210.6" height="38.09" viewBox="0 0 210.6 38.09" xmlns="http://www.w3.org/2000/svg"><path d="M208.462 27.027h-13.555a1.898 1.898 0 0 1-1.896-1.896v-6.848h13.084a2.037 2.037 0 1 0 0-4.073h-13.084V7.471c0-1.046.851-1.897 1.896-1.897h13.555a2.137 2.137 0 1 0 0-4.273h-13.555a6.177 6.177 0 0 0-6.169 6.17v17.66a6.177 6.177 0 0 0 6.169 6.169h13.555a2.136 2.136 0 1 0 0-4.273m-39.86-12.761c-2.866-.515-4.859-1.123-5.974-1.833-1.117-.709-1.675-1.666-1.675-2.873 0-1.296.573-2.361 1.719-3.191 1.147-.828 2.761-1.244 4.844-1.244 2.112 0 3.801.406 5.069 1.222.682.439 1.303 1.022 1.863 1.752a2.32 2.32 0 1 0 3.567-2.962 12.053 12.053 0 0 0-3.507-2.727c-1.947-.996-4.293-1.493-7.037-1.493-2.354 0-4.413.406-6.177 1.221-1.765.814-3.117 1.916-4.051 3.303a8.08 8.08 0 0 0-1.403 4.617c0 1.599.368 2.956 1.109 4.072.738 1.118 1.924 2.052 3.553 2.806 1.628.755 3.815 1.388 6.561 1.901 2.746.514 4.669 1.101 5.77 1.765 1.102.664 1.652 1.538 1.652 2.623 0 1.359-.61 2.408-1.834 3.147-1.22.739-2.903 1.109-5.045 1.109-2.263 0-4.156-.422-5.68-1.268a8.617 8.617 0 0 1-2.339-1.92c-.868-1.007-2.426-1.031-3.365-.091l-.008.01c-.86.858-.926 2.251-.115 3.155 2.582 2.882 6.434 4.322 11.552 4.322 2.353 0 4.428-.355 6.224-1.064 1.795-.708 3.188-1.726 4.184-3.053.997-1.328 1.495-2.867 1.495-4.618 0-1.628-.362-2.993-1.086-4.094-.725-1.101-1.878-2.022-3.463-2.76-1.583-.74-3.718-1.351-6.403-1.834m-66.832.009c-2.866-.515-4.857-1.124-5.973-1.833-1.117-.709-1.674-1.667-1.674-2.875 0-1.296.573-2.36 1.719-3.189 1.147-.829 2.761-1.245 4.843-1.245 2.11 0 3.801.408 5.068 1.222.684.439 1.305 1.023 1.865 1.752a2.319 2.319 0 1 0 3.566-2.961 12.052 12.052 0 0 0-3.507-2.728c-1.946-.995-4.293-1.493-7.038-1.493-2.353 0-4.412.407-6.176 1.221-1.766.814-3.116 1.917-4.051 3.305a8.076 8.076 0 0 0-1.403 4.615c0 1.599.368 2.958 1.109 4.072.739 1.117 1.924 2.054 3.552 2.807 1.629.755 3.817 1.388 6.562 1.901 2.745.513 4.668 1.102 5.77 1.765 1.101.663 1.652 1.538 1.652 2.624 0 1.358-.611 2.406-1.832 3.145-1.223.74-2.905 1.109-5.046 1.109-2.264 0-4.158-.422-5.681-1.268a8.572 8.572 0 0 1-2.337-1.919c-.868-1.008-2.427-1.031-3.368-.09l-.007.008c-.86.858-.926 2.251-.115 3.155 2.582 2.883 6.433 4.322 11.553 4.322 2.353 0 4.427-.354 6.222-1.063 1.795-.708 3.19-1.728 4.186-3.055.996-1.326 1.493-2.867 1.493-4.616 0-1.629-.362-2.993-1.086-4.095-.725-1.102-1.877-2.021-3.463-2.76-1.583-.74-3.717-1.35-6.403-1.833M146.343 3.36v16.428c0 3.921-1.041 6.885-3.122 8.892-2.082 2.007-5.114 3.009-9.095 3.009-3.984 0-7.016-1.002-9.098-3.009-2.081-2.007-3.121-4.971-3.121-8.892V3.36a2.444 2.444 0 0 1 4.887 0v15.839c0 2.837.595 4.926 1.787 6.268 1.192 1.342 3.039 2.014 5.545 2.014 2.504 0 4.35-.672 5.542-2.014 1.192-1.342 1.788-3.431 1.788-6.268V3.36a2.443 2.443 0 0 1 4.887 0" fill="#0c322c"/><path d="M71.408 13.461a1.235 1.235 0 0 1-1.353 0 1.232 1.232 0 0 1-.192-1.896 1.206 1.206 0 0 1 1.737-.001c.535.534.47 1.456-.192 1.897m1.936-2.687c.772 3.284-2.18 6.237-5.464 5.465a4.577 4.577 0 0 1-3.392-3.39c-.77-3.282 2.181-6.233 5.464-5.464a4.575 4.575 0 0 1 3.392 3.389M51.232 28.436c.375.539.687 1.06.862 1.581.124.37.283.858.648 1.054.02.011.038.021.06.027.67.244 2.393.203 2.393.203h3.169c.271.004 2.652-.003 2.592-.269-.287-1.273-1.759-1.501-2.88-2.167-1.033-.616-2.013-1.314-2.457-2.515-.232-.62-.095-2.05.304-2.571a2.04 2.04 0 0 1 1.181-.728c.511-.109 1.041-.015 1.552.037.63.064 1.252.178 1.88.256 1.212.158 2.436.221 3.658.188 2.017-.056 4.039-.377 5.951-1.029 1.335-.448 2.65-1.054 3.785-1.897 1.29-.959.951-.869-.357-.735-1.566.16-3.146.184-4.717.091-1.466-.085-2.912-.258-4.238-.939-1.044-.539-1.941-1.079-2.769-1.914-.124-.126-.201-.494.026-.729.22-.228.686-.096.829.026 1.444 1.207 3.598 2.201 5.828 2.309 1.206.06 2.379.082 3.586.03.603-.028 1.513-.024 2.118-.03.312-.004 1.163.086 1.322-.245.048-.096.044-.207.04-.315-.177-4.826-.534-10.269-5.584-12.576C66.246 3.856 60.597 1.187 58.211.08c-.553-.263-1.2.153-1.2.769 0 1.612.082 3.928.083 6.036-1.143-1.164-3.068-1.899-4.535-2.573a42.974 42.974 0 0 0-5.136-1.957C43.9 1.264 40.254.592 36.587.228a41.48 41.48 0 0 0-12.483.63C17.36 2.256 10.731 5.499 5.699 10.242 2.61 13.152.186 17.289.022 21.488c-.234 5.943 1.431 9.134 4.491 12.423 4.88 5.242 15.383 5.976 19.637-.24 1.914-2.798 2.329-6.593.94-9.686-1.389-3.091-4.582-5.325-7.967-5.439-2.627-.087-5.426 1.249-6.433 3.678-.768 1.855-.331 4.147 1.068 5.587.545.562 1.283 1.022 2.089.842.475-.106.872-.463.944-.945.106-.711-.516-1.172-.899-1.718-.691-.985-.551-2.464.314-3.301.73-.707 1.811-.916 2.827-.913.946.002 1.913.171 2.729.648 1.147.675 1.909 1.911 2.173 3.217.787 3.903-2.386 7.074-6.688 7.323-2.201.13-4.441-.448-6.159-1.831-4.351-3.5-5.417-10.654-.444-14.473 4.721-3.625 10.681-2.691 14.195-.807 2.812 1.507 4.908 3.973 6.496 6.699.797 1.371 1.476 2.804 2.106 4.259.606 1.399 1.173 2.809 2.386 3.834.803.68 1.794.656 2.846.656h6.005c.816 0 .617-.544.265-.904-.796-.814-1.94-.998-2.999-1.289-2.421-.666-2.174-3.871-1.504-3.871 2.164 0 2.232.065 4.128.041 2.736-.038 3.564-.197 5.704.594 1.144.424 2.243 1.542 2.96 2.564" fill="#30ba78"/></svg>