<?xml version="1.0" encoding="UTF-8" standalone="no"?>
<svg
   xmlns:dc="http://purl.org/dc/elements/1.1/"
   xmlns:cc="http://creativecommons.org/ns#"
   xmlns:rdf="http://www.w3.org/1999/02/22-rdf-syntax-ns#"
   xmlns:svg="http://www.w3.org/2000/svg"
   xmlns="http://www.w3.org/2000/svg"
   xmlns:sodipodi="http://sodipodi.sourceforge.net/DTD/sodipodi-0.dtd"
   xmlns:inkscape="http://www.inkscape.org/namespaces/inkscape"
   version="1.1"
   viewBox="0 0 256 256"
   id="svg4"
   sodipodi:docname="default.svg"
   inkscape:version="1.0.1 (3bc2e813f5, 2020-09-07)">
  <metadata
     id="metadata10">
    <rdf:RDF>
      <cc:Work
         rdf:about="">
        <dc:format>image/svg+xml</dc:format>
        <dc:type
           rdf:resource="http://purl.org/dc/dcmitype/StillImage" />
      </cc:Work>
    </rdf:RDF>
  </metadata>
  <defs
     id="defs8" />
  <sodipodi:namedview
     pagecolor="#ffffff"
     bordercolor="#666666"
     borderopacity="1"
     objecttolerance="10"
     gridtolerance="10"
     guidetolerance="10"
     inkscape:pageopacity="0"
     inkscape:pageshadow="2"
     inkscape:window-width="1920"
     inkscape:window-height="1011"
     id="namedview6"
     showgrid="false"
     showguides="true"
     inkscape:guide-bbox="true"
     inkscape:zoom="2.0301699"
     inkscape:cx="33.917986"
     inkscape:cy="128.90625"
     inkscape:window-x="0"
     inkscape:window-y="32"
     inkscape:window-maximized="1"
     inkscape:current-layer="svg4">
    <sodipodi:guide
       position="49.749532,314.12322"
       orientation="1,0"
       id="guide858" />
    <sodipodi:guide
       position="200.47584,268.31424"
       orientation="1,0"
       id="guide860" />
    <sodipodi:guide
       position="91.61795,208.22075"
       orientation="0,-1"
       id="guide862" />
  </sodipodi:namedview>
  <path
     d="m 190.85369,124.25229 c 0.0662,0.1323 0.0992,0.26461 0.14884,0.41345 0.90961,3.6715 0.82692,7.49184 -0.16538,11.06412 -0.97576,3.53919 -2.84458,6.84684 -5.54032,9.52607 l -70.51926,70.51924 c -4.43227,4.43226 -10.28682,6.66493 -16.124834,6.66493 -5.83802,0 -11.692578,-2.21613 -16.124845,-6.66493 L 72.472617,205.71991 c -0.217599,0.10729 -0.490904,-0.27904 -0.50829,-0.52105 l -24.464525,-24.41871 -9.575669,-9.57566 c -4.448799,-4.44879 -6.681468,-10.3199 -6.681468,-16.17446 0,-5.87108 2.232669,-11.72564 6.681468,-16.17443 L 108.07956,68.700185 c 2.87767,-2.877662 6.40031,-4.812642 10.12143,-5.755324 3.85342,-0.992297 7.90531,-0.942683 11.70911,0.148845 l 0.14884,0.04961 26.46126,-26.46126 1.57115,-1.571138 0.23153,-0.231536 v 0 c 2.26575,-2.298823 5.24264,-3.423426 8.21952,-3.423426 2.9769,0 5.95379,1.124603 8.21954,3.39035 v 0 l 44.52107,44.521072 v 0 c 2.24921,2.249198 3.39035,5.242628 3.39035,8.219536 0,2.976869 -1.1246,5.970304 -3.39035,8.219525 v 0 l -1.80267,1.802662 c -0.39693,0.396912 -0.81038,0.760755 -1.24037,1.10807 l 0.19846,-0.04967 z M 152.40217,47.77925 120.89674,79.301228 v 0 c -1.80268,1.802665 -2.71229,4.184178 -2.71229,6.565692 0,2.381514 0.90961,4.746484 2.71229,6.565699 v 0 l 40.81648,40.816491 c 1.80268,1.80267 4.1842,2.71228 6.56571,2.71228 2.38151,0 4.76303,-0.90961 6.5657,-2.71228 l 11.29565,-11.29565 20.20979,-20.20979 c -3.29112,-0.24805 -6.51609,-1.62075 -9.02991,-4.118017 L 156.5202,56.792618 v 0 c -2.49728,-2.497282 -3.86996,-5.722248 -4.11803,-9.013368 z m 17.86135,-5.20956 41.18034,41.180329 c 2.08382,2.083824 2.08382,5.474175 0,7.558002 v 0 c -2.08382,2.08384 -5.47418,2.08384 -7.55799,0 L 162.70552,50.127687 c -2.08383,-2.083824 -2.08383,-5.474173 0,-7.557997 v 0 c 2.08383,-2.083825 5.47418,-2.083825 7.558,0 z m 45.51337,40.303816 -44.52107,-44.52108 v 0 c -1.28999,-1.289987 -2.99343,-1.93498 -4.71342,-1.93498 -1.71997,0 -3.42341,0.644993 -4.7134,1.93498 v 0 l -1.80268,1.819212 v 0 c -1.80267,1.802673 -2.71228,4.184186 -2.71228,6.565701 0,2.381513 0.90961,4.746488 2.71228,6.5657 v 0 l 40.8165,40.816483 c 1.80266,1.802687 4.18418,2.712283 6.56569,2.712283 2.38152,0 4.76303,-0.909596 6.56571,-2.712283 l 1.80267,-1.802674 v 0 c 1.30652,-1.306508 1.95152,-3.009952 1.95152,-4.713392 0,-1.719997 -0.645,-3.423441 -1.95152,-4.72995 z M 103.1677,80.607744 41.43025,142.34517 c -3.489578,3.48958 -5.226099,8.08723 -5.226099,12.68486 0,4.59765 1.736521,9.1953 5.226099,12.68488 l 44.587219,44.58722 c 3.47305,3.47304 8.054157,5.20956 12.618727,5.20956 4.581104,0 9.162214,-1.73652 12.618714,-5.20956 l 60.77821,-60.77821 c -5.17648,1.27345 -10.88219,-0.0827 -14.91753,-4.11804 L 106.80611,97.063336 c -4.43226,-4.432255 -5.63955,-10.898727 -3.63841,-16.455592 z"
     id="path956"
     sodipodi:nodetypes="ccccssccccssssccccccsssccssscscccccssscsssccccscsssscssssccsssccsssccsscssccsssssccccc"
     style="stroke-width:1.65383" />
  <path
     d="m 108.58864,150.60696 c 0,-0.83168 -0.67428,-1.50609 -1.50609,-1.50609 -4.15909,0 -7.530608,3.37151 -7.530608,7.53061 0,3.32716 2.697198,6.0243 6.024318,6.0243 2.49539,0 4.51829,-2.0227 4.51829,-4.51829 0,-1.66366 -1.3486,-3.0123 -3.01228,-3.0123 -0.83179,0 -1.5061,0.67443 -1.5061,1.50608 m 10.54262,-16.5672 c 2.49539,0 4.5183,-2.023 4.5183,-4.51831 0,-2.49532 -2.02291,-4.51831 -4.5183,-4.51831 -2.49541,0 -4.51831,2.02299 -4.51831,4.51831 0,2.49531 2.0229,4.51831 4.51831,4.51831 h 10.54261 v -4.51831 c 0,-5.27145 -3.76516,-10.54262 -10.54261,-10.54262 h -10.54262 v 6.02431 c -11.645091,0 -21.085521,9.44015 -21.085521,21.08552 0,9.9815 8.091727,18.07322 18.073221,18.07322 7.48626,0 13.55492,-6.06864 13.55492,-13.55492 0,-0.83167 -0.67429,-1.50608 -1.5061,-1.50608 m -9.03662,-19.57923 c 0,5.27144 3.76518,10.54261 10.54263,10.54261 h 6.02431 c 0.83179,0 1.50609,-0.67412 1.50609,-1.50609"
     fill="none"
     stroke="#73ba25"
     stroke-dashoffset="10"
     stroke-width="3.01681"
     id="path844"
     style="stroke:#000000;stroke-opacity:1" />
</svg>
