<?xml version="1.0" encoding="UTF-8" standalone="no"?>
<svg
   inkscape:version="1.4 (e7c3feb100, 2024-10-09)"
   sodipodi:docname="kalpa-logo.svg"
   id="svg837"
   version="1.1"
   viewBox="0 0 200 200"
   preserveAspectRatio="xMidYMid"
   height="200"
   width="200"
   xmlns:inkscape="http://www.inkscape.org/namespaces/inkscape"
   xmlns:sodipodi="http://sodipodi.sourceforge.net/DTD/sodipodi-0.dtd"
   xmlns="http://www.w3.org/2000/svg"
   xmlns:svg="http://www.w3.org/2000/svg"
   xmlns:rdf="http://www.w3.org/1999/02/22-rdf-syntax-ns#"
   xmlns:cc="http://creativecommons.org/ns#"
   xmlns:dc="http://purl.org/dc/elements/1.1/">
  <metadata
     id="metadata843">
    <rdf:RDF>
      <cc:Work
         rdf:about="">
        <dc:format>image/svg+xml</dc:format>
        <dc:type
           rdf:resource="http://purl.org/dc/dcmitype/StillImage" />
      </cc:Work>
    </rdf:RDF>
  </metadata>
  <defs
     id="defs841" />
  <sodipodi:namedview
     fit-margin-bottom="0"
     fit-margin-right="0"
     fit-margin-top="0"
     fit-margin-left="0"
     inkscape:current-layer="svg837"
     inkscape:window-maximized="0"
     inkscape:window-y="0"
     inkscape:window-x="0"
     inkscape:cy="232.5"
     inkscape:cx="118"
     inkscape:zoom="1"
     showgrid="false"
     id="namedview839"
     inkscape:window-height="818"
     inkscape:window-width="1374"
     inkscape:pageshadow="2"
     inkscape:pageopacity="0"
     guidetolerance="10"
     gridtolerance="10"
     objecttolerance="10"
     borderopacity="1"
     bordercolor="#666666"
     pagecolor="#ffffff"
     inkscape:showpageshadow="2"
     inkscape:pagecheckerboard="0"
     inkscape:deskcolor="#d1d1d1" />
  <path
     id="path2"
     style="fill:#25ac95;fill-opacity:1;stroke-width:6.69214"
     d="m 39.561007,0.01746243 c -0.447323,0.06061923 -0.880394,0.27929533 -1.20785,0.6313961 L 23.196625,16.881012 c -0.637235,0.684635 -0.726514,1.71979 -0.220768,2.512433 L 42.080619,49.332164 C 38.995041,54.93786 36.553822,60.963573 34.872504,67.287506 L 1.5593034,75.298351 C 0.63216912,75.5204 -0.02604007,76.367994 7.9134582e-4,77.337232 L 0.62419614,99.672896 c 0.0259341,0.944624 0.69278076,1.752384 1.59747896,1.946804 l 32.7547289,7.12952 c 1.935913,7.21396 4.804546,14.01663 8.532852,20.24415 L 25.482463,158.6164 c -0.502846,0.82787 -0.360013,1.88655 0.33767,2.55188 l 16.026698,15.35084 c 0.673996,0.64359 1.707537,0.74615 2.493619,0.23681 l 29.001306,-18.99454 c 5.890043,3.22299 12.214306,5.71973 18.870988,7.33998 l 7.818536,33.33246 c 0.22003,0.94487 1.06226,1.59235 2.01308,1.56536 l 22.05294,-0.6314 c 0.92712,-0.0263 1.71338,-0.69088 1.90918,-1.61796 l 7.18214,-33.81917 c 6.75875,-2.05487 13.12189,-5.01098 18.96188,-8.72118 l 29.61176,18.48153 c 0.8143,0.51069 1.87291,0.3774 2.53257,-0.32888 l 15.15652,-16.23215 c 0.64118,-0.68665 0.72775,-1.72193 0.22078,-2.51244 l -11.1044,-17.41603 -3.40276,1.19703 c -0.4962,0.17451 -1.04398,-0.001 -1.3507,-0.43408 0,0 -7.05313,-9.84472 -16.15658,-22.55925 -9.88029,21.01821 -30.75401,35.80521 -55.3142,36.50262 -15.858098,0.45028 -30.507017,-5.06282 -41.872016,-14.52213 l 3.181964,-3.22275 c 23.053566,19.10304 57.246752,17.78695 78.743822,-3.9857 21.49708,-21.77264 22.80948,-56.404185 3.94822,-79.753279 l 20.98798,-21.257018 a 5.8775207,5.9528675 6.7320406e-4 1 0 -8.31207,-8.418622 L 148.03343,42.00535 C 124.97987,22.902313 90.786665,24.218392 69.289606,45.991034 47.792531,67.763685 46.493115,102.39523 65.354363,125.74433 l -3.233894,3.2622 C 53.289106,118.33921 47.807638,104.71125 47.392527,89.71524 46.672828,63.715809 61.366771,40.912384 83.069472,30.27188 L 82.601936,13.763489 c -3.961124,1.531003 -7.773124,3.354403 -11.390122,5.485257 L 71.19851,19.235281 40.885453,0.30653616 C 40.477298,0.05269767 40.007926,-0.04233184 39.560716,0.01713749 Z M 110.56422,40.453152 c 11.9239,-0.05993 23.87351,4.47515 33.09242,13.588179 a 5.8773724,5.9527173 6.3209206e-4 0 0 0.79223,0.802403 c 18.01182,18.673149 17.92558,48.404366 -0.35062,66.914876 -18.27075,18.50497 -47.617141,18.59437 -66.054957,0.36834 a 5.8773724,5.9527173 6.3209206e-4 0 0 -0.79224,-0.8024 C 59.239215,102.6514 59.325487,72.920178 77.601689,54.409656 86.737049,45.157188 98.640324,40.512843 110.56422,40.453165 Z m 0.28573,23.86153 c -6.02829,0 -12.058686,2.308238 -16.624124,6.932205 -9.130884,9.247928 -9.130903,24.426542 0,33.674493 9.130904,9.24794 24.117374,9.24793 33.248254,0 9.13088,-9.24793 9.13091,-24.426544 0,-33.674493 -4.56546,-4.623974 -10.59584,-6.932212 -16.62413,-6.932205 z m 0,11.825531 c 2.99568,0 5.99243,1.175913 8.31206,3.525295 4.6393,4.698768 4.63927,12.138493 0,16.837241 -4.63927,4.698751 -11.98483,4.698781 -16.62412,0 -4.639301,-4.698769 -4.639269,-12.138493 0,-16.837241 2.31963,-2.349368 5.31637,-3.525295 8.31206,-3.525295 z" />
</svg>
