<?xml version="1.0" encoding="UTF-8" standalone="no"?>
<svg
   version="1.1"
   viewBox="0 0 256 256"
   id="svg895"
   sodipodi:docname="LeapMicro.svg"
   inkscape:version="1.4.1 (unknown)"
   xml:space="preserve"
   xmlns:inkscape="http://www.inkscape.org/namespaces/inkscape"
   xmlns:sodipodi="http://sodipodi.sourceforge.net/DTD/sodipodi-0.dtd"
   xmlns="http://www.w3.org/2000/svg"
   xmlns:svg="http://www.w3.org/2000/svg"
   xmlns:rdf="http://www.w3.org/1999/02/22-rdf-syntax-ns#"
   xmlns:cc="http://creativecommons.org/ns#"
   xmlns:dc="http://purl.org/dc/elements/1.1/"><metadata
     id="metadata901"><rdf:RDF><cc:Work
         rdf:about=""><dc:format>image/svg+xml</dc:format><dc:type
           rdf:resource="http://purl.org/dc/dcmitype/StillImage" /></cc:Work></rdf:RDF></metadata><defs
     id="defs899" /><sodipodi:namedview
     pagecolor="#ffffff"
     bordercolor="#666666"
     borderopacity="1"
     objecttolerance="10"
     gridtolerance="10"
     guidetolerance="10"
     inkscape:pageopacity="0"
     inkscape:pageshadow="2"
     inkscape:window-width="2560"
     inkscape:window-height="1374"
     id="namedview897"
     showgrid="false"
     inkscape:zoom="2.8710938"
     inkscape:cx="121.55646"
     inkscape:cy="152.72925"
     inkscape:window-x="0"
     inkscape:window-y="0"
     inkscape:window-maximized="1"
     inkscape:current-layer="svg895"
     inkscape:document-rotation="0"
     showguides="true"
     inkscape:guide-bbox="true"
     inkscape:showpageshadow="2"
     inkscape:pagecheckerboard="0"
     inkscape:deskcolor="#d1d1d1"><sodipodi:guide
       position="129.64396,268.23267"
       orientation="1,0"
       id="guide844"
       inkscape:locked="false" /><sodipodi:guide
       position="174.14966,124.34286"
       orientation="0,-1"
       id="guide846"
       inkscape:locked="false" /></sodipodi:namedview><path
     d="m 128.00001,33.5298 a 6.8047259,6.8927332 0 0 0 -4.81074,2.019202 L 57.142441,102.45004 H 25.938643 a 6.8041426,6.8921424 0 0 0 -6.804142,6.89214 6.8041426,6.8921424 0 0 0 6.804142,6.89213 h 31.203798 l 66.046829,66.90105 a 6.8047259,6.8927332 0 0 0 9.62146,0 l 66.04685,-66.90105 h 31.20379 a 6.8041426,6.8921424 0 0 0 6.80413,-6.89213 6.8041426,6.8921424 0 0 0 -6.80413,-6.89214 H 198.85758 L 132.81073,35.549002 A 6.8047259,6.8927332 0 0 0 128.00001,33.5298 Z m 0,16.637629 58.42037,59.175931 -58.42037,59.17594 -58.420372,-59.17594 z m 0,31.607355 a 27.21657,27.56857 0 0 0 -27.21657,27.568576 27.21657,27.56857 0 0 0 27.21657,27.56857 27.21657,27.56857 0 0 0 27.21657,-27.56857 27.21657,27.56857 0 0 0 -27.21657,-27.568576 z m 0,13.784292 a 13.608285,13.784284 0 0 1 13.60828,13.784284 13.608285,13.784284 0 0 1 -13.60828,13.78428 13.608285,13.784284 0 0 1 -13.60828,-13.78428 13.608285,13.784284 0 0 1 13.60828,-13.784284 z M 59.95858,136.91193 a 6.8041426,6.8921424 0 0 0 -4.810725,2.01919 6.8041426,6.8921424 0 0 0 0,9.74589 l 72.850985,73.79319 72.85097,-73.79319 a 6.8041426,6.8921424 0 0 0 0,-9.74589 6.8041426,6.8921424 0 0 0 -9.62143,0 l -63.22993,64.0477 -63.229924,-64.0477 a 6.8041426,6.8921424 0 0 0 -4.810724,-2.01919 z"
     fill="#df7320"
     id="path1"
     style="stroke-width:1.95657" /></svg>
