<?xml version="1.0" encoding="UTF-8" standalone="no"?>
<svg
   xmlns:dc="http://purl.org/dc/elements/1.1/"
   xmlns:cc="http://creativecommons.org/ns#"
   xmlns:rdf="http://www.w3.org/1999/02/22-rdf-syntax-ns#"
   xmlns:svg="http://www.w3.org/2000/svg"
   xmlns="http://www.w3.org/2000/svg"
   xmlns:sodipodi="http://sodipodi.sourceforge.net/DTD/sodipodi-0.dtd"
   xmlns:inkscape="http://www.inkscape.org/namespaces/inkscape"
   version="1.1"
   viewBox="0 0 256 256"
   id="svg895"
   sodipodi:docname="MicroOS.svg"
   inkscape:version="1.0.1 (3bc2e813f5, 2020-09-07)">
  <metadata
     id="metadata901">
    <rdf:RDF>
      <cc:Work
         rdf:about="">
        <dc:format>image/svg+xml</dc:format>
        <dc:type
           rdf:resource="http://purl.org/dc/dcmitype/StillImage" />
        <dc:title></dc:title>
      </cc:Work>
    </rdf:RDF>
  </metadata>
  <defs
     id="defs899" />
  <sodipodi:namedview
     pagecolor="#ffffff"
     bordercolor="#666666"
     borderopacity="1"
     objecttolerance="10"
     gridtolerance="10"
     guidetolerance="10"
     inkscape:pageopacity="0"
     inkscape:pageshadow="2"
     inkscape:window-width="1424"
     inkscape:window-height="937"
     id="namedview897"
     showgrid="false"
     inkscape:zoom="2.8710938"
     inkscape:cx="121.65047"
     inkscape:cy="152.41162"
     inkscape:window-x="59"
     inkscape:window-y="106"
     inkscape:window-maximized="0"
     inkscape:current-layer="svg895"
     inkscape:document-rotation="0"
     showguides="true"
     inkscape:guide-bbox="true">
    <sodipodi:guide
       position="129.64396,268.23267"
       orientation="1,0"
       id="guide844" />
    <sodipodi:guide
       position="174.14966,124.34286"
       orientation="0,-1"
       id="guide846" />
  </sodipodi:namedview>
  <path
     fill="#173f4f"
     d="m 130.17134,63.039339 c -35.16735,0 -64.206225,26.897999 -67.635344,61.182491 H 28.200501 a 6.7987353,6.7987338 0 1 0 0,13.59611 h 34.335495 c 3.429119,34.2845 32.467994,61.18248 67.635344,61.18248 35.16735,0 64.20624,-26.89798 67.63536,-61.18248 h 34.33548 a 6.7987353,6.7987338 0 1 0 0,-13.59611 H 197.8067 C 194.37758,89.937338 165.33869,63.039339 130.17134,63.039339 Z m 0,13.596106 c 29.88935,0 53.96945,23.919775 54.33134,53.720535 a 6.7987353,6.7987338 0 0 0 0,1.30116 c -0.34766,29.81339 -24.43301,53.74718 -54.33134,53.74718 -29.88932,0 -53.96943,-23.91977 -54.331342,-53.72053 a 6.7987353,6.7987338 0 0 0 0,-1.30116 C 76.18769,100.56922 100.27302,76.635445 130.17134,76.635445 Z m 0,27.192225 c -14.93731,0 -27.19221,12.25485 -27.19221,27.1922 0,14.93738 12.2549,27.19224 27.19221,27.19224 14.93734,0 27.19225,-12.25486 27.19223,-27.19224 0,-14.93735 -12.25489,-27.1922 -27.19223,-27.1922 z m 0,13.5961 c 7.58946,0 13.59613,6.00663 13.59613,13.5961 0,7.58949 -6.00667,13.59611 -13.59613,13.59611 -7.58945,0 -13.59611,-6.00662 -13.59611,-13.59611 0,-7.58947 6.00666,-13.5961 13.59611,-13.5961 z"
     id="path886"
     style="stroke-width:1.94402;fill:#8e4085;fill-opacity:1" />
</svg>
