<?xml version="1.0" encoding="UTF-8" standalone="no"?>
<svg
   version="1.1"
   viewBox="0 0 256 256"
   id="svg895"
   sodipodi:docname="SUSE-dark.svg"
   inkscape:version="1.4.3 (unknown)"
   xmlns:inkscape="http://www.inkscape.org/namespaces/inkscape"
   xmlns:sodipodi="http://sodipodi.sourceforge.net/DTD/sodipodi-0.dtd"
   xmlns="http://www.w3.org/2000/svg"
   xmlns:svg="http://www.w3.org/2000/svg"
   xmlns:rdf="http://www.w3.org/1999/02/22-rdf-syntax-ns#"
   xmlns:cc="http://creativecommons.org/ns#"
   xmlns:dc="http://purl.org/dc/elements/1.1/">
  <metadata
     id="metadata901">
    <rdf:RDF>
      <cc:Work
         rdf:about="">
        <dc:format>image/svg+xml</dc:format>
        <dc:type
           rdf:resource="http://purl.org/dc/dcmitype/StillImage" />
      </cc:Work>
    </rdf:RDF>
  </metadata>
  <defs
     id="defs899" />
  <sodipodi:namedview
     pagecolor="#ffffff"
     bordercolor="#666666"
     borderopacity="1"
     objecttolerance="10"
     gridtolerance="10"
     guidetolerance="10"
     inkscape:pageopacity="0"
     inkscape:pageshadow="2"
     inkscape:window-width="1268"
     inkscape:window-height="1355"
     id="namedview897"
     showgrid="false"
     inkscape:zoom="0.71777345"
     inkscape:cx="71.749659"
     inkscape:cy="61.300679"
     inkscape:window-x="20"
     inkscape:window-y="20"
     inkscape:window-maximized="0"
     inkscape:current-layer="svg895"
     inkscape:document-rotation="0"
     showguides="true"
     inkscape:guide-bbox="true"
     inkscape:showpageshadow="2"
     inkscape:pagecheckerboard="0"
     inkscape:deskcolor="#d1d1d1">
    <sodipodi:guide
       position="129.64396,268.23267"
       orientation="1,0"
       id="guide844"
       inkscape:locked="false" />
    <sodipodi:guide
       position="174.14966,124.34286"
       orientation="0,-1"
       id="guide846"
       inkscape:locked="false" />
  </sodipodi:namedview>
  <path
     d="m 120.07486,161.71503 c -2.24246,0 -4.05974,1.81728 -4.05974,4.05974 v 25.56881 c 0,4.71122 -0.99094,8.18463 -2.96938,10.41338 -1.98186,2.23217 -5.05066,3.34654 -9.21327,3.34654 -4.162608,0 -7.231414,-1.11437 -9.209843,-3.34654 -1.981871,-2.22875 -2.972806,-5.70216 -2.972806,-10.41338 v -25.56881 c 0,-2.24246 -1.81728,-4.05974 -4.059741,-4.05974 -2.242451,0 -4.059741,1.81728 -4.059741,4.05974 v 26.54603 c 0,6.51822 1.728132,11.44203 5.187828,14.77485 3.459696,3.33625 8.496658,5.00266 15.114303,5.00266 6.61765,0 11.65804,-1.66641 15.1143,-5.00266 3.4597,-3.33282 5.19126,-8.25663 5.19126,-14.77485 v -26.54603 c 0,-2.24246 -1.82071,-4.05974 -4.06317,-4.05974"
     style="fill:#ffffff;fill-opacity:1;fill-rule:nonzero;stroke:none;stroke-width:3.42883"
     id="path128" />
  <path
     d="m 60.460461,186.18935 c -2.633342,-1.22753 -6.178754,-2.24246 -10.639669,-3.04481 -4.762657,-0.85376 -8.071477,-1.86871 -9.926478,-3.0448 -1.855002,-1.17952 -2.784208,-2.7705 -2.784208,-4.77637 0,-2.15331 0.953194,-3.92258 2.859641,-5.30098 1.906437,-1.37838 4.587784,-2.06759 8.047479,-2.06759 3.507691,0 6.315907,0.67551 8.421215,2.02988 1.13494,0.73032 2.167018,1.7007 3.096234,2.91108 1.368102,1.77613 3.963732,2.0093 5.630145,0.50745 1.577266,-1.41953 1.714418,-3.85057 0.298293,-5.42784 -1.710988,-1.90985 -3.651706,-3.41853 -5.829017,-4.53291 -3.233396,-1.65613 -7.131977,-2.48247 -11.692322,-2.48247 -3.912306,0 -7.33428,0.67551 -10.265933,2.02986 -2.931654,1.35439 -5.177545,3.1854 -6.730804,5.48957 -1.553259,2.30761 -2.331608,4.86551 -2.331608,7.6703 0,2.65735 0.613788,4.91352 1.844718,6.76852 1.227518,1.855 3.195674,3.40826 5.901018,4.66321 2.708785,1.25153 6.343345,2.30418 10.9037,3.15796 4.560345,0.85377 7.75945,1.831 9.587014,2.93166 1.830994,1.10408 2.746496,2.55791 2.746496,4.36147 0,2.25618 -1.014933,3.99802 -3.044808,5.22554 -2.029866,1.23096 -4.824367,1.84472 -8.383493,1.84472 -3.761429,0 -6.909099,-0.70292 -9.439579,-2.10873 -1.446976,-0.79895 -2.743075,-1.86529 -3.884877,-3.18882 -1.443535,-1.67327 -4.032302,-1.71099 -5.595854,-0.15085 l -0.01069,0.0136 c -1.42982,1.42983 -1.539544,3.74086 -0.19196,5.24611 4.289471,4.78666 10.691104,7.17999 19.198035,7.17999 3.908875,0 7.354856,-0.58978 10.337936,-1.76585 2.983089,-1.17609 5.300983,-2.86993 6.953682,-5.07468 1.65612,-2.20816 2.482475,-4.76265 2.482475,-7.67029 0,-2.70879 -0.600084,-4.97525 -1.803566,-6.80624 -1.203521,-1.83101 -3.120241,-3.36026 -5.753592,-4.58779"
     style="fill:#ffffff;fill-opacity:1;fill-rule:nonzero;stroke:none;stroke-width:3.42883"
     id="path132" />
  <path
     d="m 172.01141,186.17598 c -2.63335,-1.22753 -6.17876,-2.24246 -10.63968,-3.04481 -4.76264,-0.85376 -8.07146,-1.86872 -9.92647,-3.04481 -1.855,-1.17951 -2.78421,-2.77049 -2.78421,-4.77636 0,-2.1533 0.95319,-3.92259 2.85965,-5.30097 1.90643,-1.3784 4.58778,-2.06759 8.04747,-2.06759 3.5077,0 6.31591,0.67551 8.42121,2.02987 1.13495,0.73032 2.16703,1.7007 3.09625,2.91107 1.3681,1.77614 3.96373,2.0093 5.63014,0.50746 1.57727,-1.41954 1.71442,-3.85058 0.29829,-5.42784 -1.71099,-1.90986 -3.65171,-3.41855 -5.82902,-4.53292 -3.23339,-1.65613 -7.13197,-2.48248 -11.69233,-2.48248 -3.91229,0 -7.33427,0.67551 -10.26592,2.02987 -2.93165,1.3544 -5.17754,3.18539 -6.7308,5.48957 -1.55327,2.3076 -2.33161,4.86551 -2.33161,7.67029 0,2.65735 0.61379,4.91353 1.84471,6.76853 1.22753,1.855 3.19567,3.40826 5.90103,4.66322 2.70877,1.25151 6.34334,2.30417 10.90369,3.15795 4.56035,0.85376 7.75945,1.83099 9.58702,2.93165 1.83099,1.10408 2.7465,2.55791 2.7465,4.36148 0,2.25617 -1.01494,3.99802 -3.04481,5.22554 -2.02987,1.23096 -4.8278,1.84472 -8.38351,1.84472 -3.76142,0 -6.90909,-0.70292 -9.43957,-2.10873 -1.44697,-0.79895 -2.74307,-1.8653 -3.88487,-3.18883 -1.44354,-1.67326 -4.03231,-1.71098 -5.59586,-0.15084 l -0.0107,0.0136 c -1.42982,1.42982 -1.53954,3.74086 -0.19205,5.24612 4.28947,4.78665 10.6911,7.17997 19.19804,7.17997 3.90887,0 7.35485,-0.58978 10.33794,-1.76584 2.98308,-1.17609 5.30097,-2.86994 6.95367,-5.07468 1.65613,-2.20817 2.48247,-4.76265 2.48247,-7.6703 0,-2.70878 -0.60008,-4.97524 -1.80356,-6.80624 -1.20352,-1.83099 -3.12024,-3.36025 -5.75358,-4.58778"
     style="fill:#ffffff;fill-opacity:1;fill-rule:nonzero;stroke:none;stroke-width:3.42883"
     id="path136" />
  <path
     d="m 227.85547,204.99308 h -22.52401 c -1.735,0 -3.14767,-1.41268 -3.14767,-3.15111 v -11.37686 h 21.73881 c 1.86528,0 3.38083,-1.51555 3.38083,-3.38426 0,-1.86872 -1.51555,-3.38427 -3.38083,-3.38427 h -21.73881 v -11.202 c 0,-1.73498 1.41267,-3.14767 3.14767,-3.14767 h 22.52401 c 1.96129,0 3.55227,-1.59098 3.55227,-3.55227 0,-1.96129 -1.59098,-3.54885 -3.55227,-3.54885 h -22.52401 c -5.65072,0 -10.25222,4.59807 -10.25222,10.24879 v 29.34739 c 0,5.65416 4.6015,10.25222 10.25222,10.25222 h 22.52401 c 1.96129,0 3.55227,-1.58755 3.55227,-3.54884 0,-1.96129 -1.59098,-3.55227 -3.55227,-3.55227"
     style="fill:#ffffff;fill-opacity:1;fill-rule:nonzero;stroke:none;stroke-width:3.42883"
     id="path140" />
  <path
     d="m 222.45951,69.975531 c 0,4.995813 -4.04603,9.041836 -9.03841,9.041836 -4.99239,0 -9.03498,-4.046023 -9.03498,-9.041836 0,-4.988954 4.04259,-9.034978 9.03498,-9.034978 4.99238,0 9.03841,4.046024 9.03841,9.034978 m -64.53752,37.820039 c -5.75358,-2.1293 -7.9789,-1.7007 -15.34061,-1.60127 -5.09868,0.069 -5.2804,-0.10623 -11.10256,-0.10623 -1.80014,0 -2.46191,8.62009 4.04602,10.40994 2.84594,0.78174 5.92503,1.27553 8.06805,3.46656 0.94639,0.96689 1.48125,2.43103 -0.71322,2.43103 h -16.14982 c -2.82878,0 -5.49641,0.0651 -7.65658,-1.76242 -3.26079,-2.75683 -4.78662,-6.54912 -6.41533,-10.31398 -1.69727,-3.9123 -3.5214,-7.76631 -5.66443,-11.452303 -4.2689,-7.330849 -9.905894,-13.965643 -17.473336,-18.018525 -9.44644,-5.064387 -25.47967,-7.577725 -38.173211,2.170452 -13.375882,10.272788 -10.509379,29.511976 1.189806,38.924126 4.622064,3.72028 10.646531,5.27697 16.564694,4.92723 11.572316,-0.672 20.106685,-9.20299 17.991094,-19.69865 -0.709818,-3.51112 -2.75678,-6.83709 -5.846162,-8.650946 -2.194456,-1.282385 -4.796938,-1.738419 -7.341132,-1.745277 -2.729351,-0.0033 -5.637007,0.558902 -7.601722,2.458473 -2.324756,2.25274 -2.701923,6.22677 -0.843461,8.88068 1.028657,1.46412 2.701923,2.70535 2.417335,4.61864 -0.19546,1.2961 -1.261809,2.25617 -2.537342,2.54076 -2.170449,0.48345 -4.155741,-0.75093 -5.619862,-2.26303 -3.761429,-3.87458 -4.937521,-10.03962 -2.869934,-15.028573 2.705354,-6.531928 10.235074,-10.125348 17.29847,-9.892187 9.106986,0.305165 17.692791,6.315913 21.426792,14.63083 3.737422,8.31493 2.619627,18.52257 -2.53048,26.05229 -11.438594,16.71556 -39.685328,14.74055 -52.810912,0.6446 C 32.004952,120.57138 27.526892,111.98902 28.157796,96.003792 28.59673,84.709212 35.1149,73.586074 43.42297,65.758045 56.960001,53.002783 74.786514,44.279829 92.925043,40.518398 103.93846,38.24508 115.3119,37.710182 126.49676,38.824554 c 9.86133,0.980646 19.6678,2.787642 29.14509,5.722724 4.70437,1.467541 9.33329,3.20596 13.81134,5.263261 3.94317,1.810423 9.1207,3.785432 12.19637,6.915958 0,-5.667863 -0.22287,-11.894626 -0.22287,-16.232102 0,-1.656126 1.74185,-2.773927 3.22997,-2.067586 6.41534,2.979656 21.6085,10.156206 31.74072,14.788562 13.5816,6.206189 14.54511,20.84731 15.01828,33.825449 0.0107,0.288019 0.0204,0.589762 -0.10623,0.846921 -0.42513,0.888073 -2.71564,0.64805 -3.5557,0.658333 -1.62527,0.0172 -4.07688,0.0069 -5.69529,0.07882 -3.24368,0.144015 -6.40163,0.08232 -9.64531,-0.07882 -5.99703,-0.29145 -11.79177,-2.962513 -15.6732,-6.213047 -0.38742,-0.32231 -1.63899,-0.67891 -2.22875,-0.06862 -0.61379,0.634335 -0.40802,1.621837 -0.0719,1.961292 2.22531,2.245888 4.63921,3.699713 7.44742,5.15011 3.56599,1.830997 7.45429,2.29389 11.39744,2.52362 4.22433,0.250298 8.47608,0.188579 12.68669,-0.243454 3.51799,-0.360031 4.42663,-0.603476 0.9566,1.978436 -3.05166,2.263031 -6.58679,3.891726 -10.17678,5.098678 -5.14325,1.752131 -10.57796,2.619631 -16.0058,2.770501 -3.28825,0.0891 -6.57651,-0.0857 -9.84075,-0.50747 -1.68356,-0.2126 -3.36026,-0.51776 -5.0541,-0.68919 -1.37496,-0.13715 -2.80136,-0.394324 -4.17289,-0.0994 -1.23782,0.27087 -2.39333,0.94293 -3.1751,1.95786 -1.07323,1.39896 -1.44355,5.24611 -0.82296,6.91252 1.20009,3.2334 3.83345,5.1124 6.61422,6.76853 3.01052,1.78985 6.97083,2.40018 7.74232,5.82559 0.16115,0.71662 -6.24048,0.73382 -6.9674,0.72352 h -8.52407 c 0,0 -4.63579,0.10973 -6.43593,-0.54517 -0.0612,-0.0175 -0.10623,-0.0447 -0.16115,-0.0719 -0.98416,-0.52796 -1.40933,-1.84122 -1.74193,-2.83559 -0.47315,-1.40239 -1.30982,-2.80135 -2.32132,-4.25518 -1.927,-2.74307 -4.88609,-5.75359 -7.96175,-6.89197 m 58.30733,-49.718058 c -8.82925,-2.071015 -16.76357,5.863308 -14.68912,14.689125 1.05264,4.498632 4.62206,8.068049 9.1207,9.124128 8.82924,2.074446 16.77043,-5.870162 14.69255,-14.69941 -1.05951,-4.498632 -4.62893,-8.064619 -9.12413,-9.113843 m 4.27576,11.23629 c -1.28238,-1.32353 -3.39454,-1.32353 -4.67693,0 -1.44011,1.436683 -1.26867,3.915728 0.52116,5.102106 1.09037,0.723483 2.5442,0.723483 3.63456,0 1.78643,-1.186378 1.95787,-3.665423 0.52116,-5.102106"
     style="fill:#31ba78;fill-opacity:1;fill-rule:nonzero;stroke:none;stroke-width:3.42883"
     id="path144" />
</svg>
