<?xml version="1.0" encoding="UTF-8" standalone="no"?>
<svg
   xmlns:dc="http://purl.org/dc/elements/1.1/"
   xmlns:cc="http://creativecommons.org/ns#"
   xmlns:rdf="http://www.w3.org/1999/02/22-rdf-syntax-ns#"
   xmlns:svg="http://www.w3.org/2000/svg"
   xmlns="http://www.w3.org/2000/svg"
   xmlns:sodipodi="http://sodipodi.sourceforge.net/DTD/sodipodi-0.dtd"
   xmlns:inkscape="http://www.inkscape.org/namespaces/inkscape"
   version="1.1"
   viewBox="0 0 256 256"
   id="svg895"
   sodipodi:docname="SUSE.svg"
   inkscape:version="1.0.1 (3bc2e813f5, 2020-09-07)">
  <metadata
     id="metadata901">
    <rdf:RDF>
      <cc:Work
         rdf:about="">
        <dc:format>image/svg+xml</dc:format>
        <dc:type
           rdf:resource="http://purl.org/dc/dcmitype/StillImage" />
        <dc:title></dc:title>
      </cc:Work>
    </rdf:RDF>
  </metadata>
  <defs
     id="defs899" />
  <sodipodi:namedview
     pagecolor="#ffffff"
     bordercolor="#666666"
     borderopacity="1"
     objecttolerance="10"
     gridtolerance="10"
     guidetolerance="10"
     inkscape:pageopacity="0"
     inkscape:pageshadow="2"
     inkscape:window-width="1424"
     inkscape:window-height="937"
     id="namedview897"
     showgrid="false"
     inkscape:zoom="1.4355469"
     inkscape:cx="-16.632019"
     inkscape:cy="190.15894"
     inkscape:window-x="59"
     inkscape:window-y="106"
     inkscape:window-maximized="0"
     inkscape:current-layer="svg895"
     inkscape:document-rotation="0"
     showguides="true"
     inkscape:guide-bbox="true">
    <sodipodi:guide
       position="129.64396,268.23267"
       orientation="1,0"
       id="guide844" />
    <sodipodi:guide
       position="174.14966,124.34286"
       orientation="0,-1"
       id="guide846" />
  </sodipodi:namedview>
  <g
     inkscape:label="Ebene 1"
     id="layer1"
     transform="matrix(9.7195302,0,0,9.7195302,-171.48842,7.5947535)">
    <path
       d="m 29.997672,15.856762 c -0.230717,0 -0.417689,0.186972 -0.417689,0.417689 v 2.630663 c 0,0.484717 -0.101953,0.842081 -0.305506,1.071387 -0.203905,0.229658 -0.519641,0.344311 -0.947913,0.344311 -0.428273,0 -0.744009,-0.114653 -0.947561,-0.344311 -0.203906,-0.229306 -0.305859,-0.58667 -0.305859,-1.071387 v -2.630663 c 0,-0.230717 -0.186972,-0.417689 -0.417689,-0.417689 -0.230716,0 -0.417689,0.186972 -0.417689,0.417689 v 2.731205 c 0,0.670631 0.1778,1.17722 0.533753,1.52012 0.355953,0.343252 0.874184,0.514702 1.555045,0.514702 0.680861,0 1.199444,-0.17145 1.555044,-0.514702 0.355953,-0.3429 0.534106,-0.849489 0.534106,-1.52012 v -2.731205 c 0,-0.230717 -0.187325,-0.417689 -0.418042,-0.417689"
       style="fill:#0c322c;fill-opacity:1;fill-rule:nonzero;stroke:none;stroke-width:0.352777"
       id="path128" />
    <path
       d="m 23.864207,18.374818 c -0.270933,-0.126295 -0.635705,-0.230717 -1.094669,-0.313267 -0.490009,-0.08784 -0.830439,-0.192264 -1.021292,-0.313267 -0.190853,-0.121355 -0.286455,-0.285044 -0.286455,-0.491419 0,-0.221545 0.09807,-0.403578 0.294216,-0.545395 0.196145,-0.141816 0.472017,-0.212725 0.82797,-0.212725 0.360891,0 0.649816,0.0695 0.866422,0.208845 0.116769,0.07514 0.222955,0.174978 0.318558,0.299508 0.140758,0.182739 0.407811,0.206728 0.579261,0.05221 0.162278,-0.14605 0.176389,-0.396169 0.03069,-0.558447 -0.176036,-0.196496 -0.375708,-0.351718 -0.599722,-0.466371 -0.33267,-0.170392 -0.733778,-0.255411 -1.202972,-0.255411 -0.40252,0 -0.754592,0.0695 -1.056217,0.208844 -0.301625,0.139347 -0.532695,0.327731 -0.692503,0.564797 -0.159808,0.23742 -0.239889,0.500592 -0.239889,0.789164 0,0.273403 0.06315,0.505531 0.189795,0.696384 0.126294,0.190852 0.328789,0.350661 0.60713,0.479777 0.278695,0.128764 0.652639,0.237067 1.121834,0.324909 0.469194,0.08784 0.798336,0.188383 0.986366,0.301625 0.188383,0.113594 0.282575,0.263172 0.282575,0.448733 0,0.232128 -0.104422,0.411339 -0.313267,0.537633 -0.208844,0.126648 -0.496358,0.189795 -0.862541,0.189795 -0.386997,0 -0.710847,-0.07232 -0.971197,-0.216958 -0.148873,-0.0822 -0.282223,-0.191912 -0.399698,-0.328084 -0.148519,-0.172155 -0.414866,-0.176036 -0.575733,-0.01552 l -0.0011,0.0014 c -0.147108,0.147109 -0.158397,0.384881 -0.01975,0.53975 0.441325,0.492478 1.099961,0.738717 1.975202,0.738717 0.402167,0 0.756709,-0.06068 1.063625,-0.18168 0.306917,-0.121003 0.545395,-0.295275 0.715434,-0.522112 0.170391,-0.227188 0.255411,-0.490008 0.255411,-0.789163 0,-0.278695 -0.06174,-0.511881 -0.185561,-0.700264 -0.123825,-0.188384 -0.321028,-0.345722 -0.591962,-0.472017"
       style="fill:#0c322c;fill-opacity:1;fill-rule:nonzero;stroke:none;stroke-width:0.352777"
       id="path132" />
    <path
       d="m 35.341197,18.373442 c -0.270934,-0.126295 -0.635706,-0.230717 -1.09467,-0.313267 -0.490008,-0.08784 -0.830438,-0.192264 -1.021291,-0.313267 -0.190853,-0.121355 -0.286456,-0.285044 -0.286456,-0.491419 0,-0.221544 0.09807,-0.403578 0.294217,-0.545394 0.196144,-0.141817 0.472017,-0.212725 0.827969,-0.212725 0.360892,0 0.649817,0.0695 0.866422,0.208844 0.11677,0.07514 0.222956,0.174978 0.318559,0.299508 0.140758,0.182739 0.407811,0.206728 0.579261,0.05221 0.162278,-0.14605 0.176389,-0.396169 0.03069,-0.558447 -0.176037,-0.196497 -0.375709,-0.351719 -0.599723,-0.466372 -0.332669,-0.170392 -0.733777,-0.255411 -1.202972,-0.255411 -0.402519,0 -0.754591,0.0695 -1.056216,0.208844 -0.301625,0.139348 -0.532695,0.327731 -0.692503,0.564798 -0.159809,0.237419 -0.239889,0.500591 -0.239889,0.789163 0,0.273403 0.06315,0.505531 0.189794,0.696384 0.126295,0.190853 0.328789,0.350661 0.607131,0.479778 0.278694,0.128763 0.652639,0.237066 1.121833,0.324908 0.469195,0.08784 0.798336,0.188383 0.986367,0.301625 0.188383,0.113594 0.282575,0.263172 0.282575,0.448733 0,0.232128 -0.104422,0.411339 -0.313267,0.537633 -0.208844,0.126648 -0.496711,0.189795 -0.862542,0.189795 -0.386997,0 -0.710847,-0.07232 -0.971197,-0.216958 -0.148872,-0.0822 -0.282222,-0.191912 -0.399697,-0.328084 -0.148519,-0.172155 -0.414867,-0.176036 -0.575733,-0.01552 l -0.0011,0.0014 c -0.147108,0.147108 -0.158397,0.38488 -0.01976,0.53975 0.441325,0.492477 1.099961,0.738716 1.975203,0.738716 0.402166,0 0.756708,-0.06068 1.063625,-0.18168 0.306916,-0.121003 0.545394,-0.295275 0.715433,-0.522111 0.170392,-0.227189 0.255411,-0.490009 0.255411,-0.789164 0,-0.278695 -0.06174,-0.511881 -0.185561,-0.700264 -0.123825,-0.188383 -0.321028,-0.345722 -0.591961,-0.472017"
       style="fill:#0c322c;fill-opacity:1;fill-rule:nonzero;stroke:none;stroke-width:0.352777"
       id="path136" />
    <path
       d="m 41.086748,20.309451 h -2.317397 c -0.178506,0 -0.32385,-0.145344 -0.32385,-0.324203 v -1.170516 h 2.236611 c 0.191911,0 0.347839,-0.155928 0.347839,-0.348192 0,-0.192264 -0.155928,-0.348192 -0.347839,-0.348192 h -2.236611 v -1.152525 c 0,-0.178505 0.145344,-0.32385 0.32385,-0.32385 h 2.317397 c 0.201789,0 0.365478,-0.163689 0.365478,-0.365478 0,-0.201788 -0.163689,-0.365125 -0.365478,-0.365125 h -2.317397 c -0.581378,0 -1.054806,0.473075 -1.054806,1.054453 v 3.019425 c 0,0.581731 0.473428,1.054806 1.054806,1.054806 h 2.317397 c 0.201789,0 0.365478,-0.163336 0.365478,-0.365125 0,-0.201789 -0.163689,-0.365478 -0.365478,-0.365478"
       style="fill:#0c322c;fill-opacity:1;fill-rule:nonzero;stroke:none;stroke-width:0.352777"
       id="path140" />
    <path
       d="m 40.531581,6.4180857 c 0,0.5139973 -0.416278,0.930275 -0.929922,0.930275 -0.513645,0 -0.92957,-0.4162777 -0.92957,-0.930275 0,-0.5132917 0.415925,-0.9295694 0.92957,-0.9295694 0.513644,0 0.929922,0.4162777 0.929922,0.9295694 m -6.639983,3.8911383 c -0.591961,-0.219074 -0.820914,-0.174977 -1.578328,-0.164747 -0.524581,0.0071 -0.543278,-0.01093 -1.142294,-0.01093 -0.185209,0 -0.253295,0.886883 0.416277,1.071033 0.292806,0.08043 0.6096,0.131234 0.830086,0.356659 0.09737,0.09948 0.1524,0.250119 -0.07338,0.250119 h -1.661584 c -0.291041,0 -0.565502,0.0067 -0.787752,-0.181328 -0.335489,-0.283638 -0.492475,-0.67381 -0.660045,-1.06116 -0.174625,-0.40252 -0.362302,-0.7990419 -0.582789,-1.1782779 -0.439208,-0.754239 -1.019174,-1.436864 -1.797755,-1.8538473 -0.971903,-0.5210527 -2.621492,-0.779639 -3.927475,0.2233083 -1.376186,1.0569223 -1.081264,3.0363579 0.122414,4.0047329 0.475544,0.382764 1.095375,0.542925 1.704269,0.506942 1.190625,-0.06914 2.068689,-0.946856 1.851025,-2.026708 -0.07303,-0.3612446 -0.283633,-0.7034392 -0.601486,-0.8900585 -0.225778,-0.131939 -0.493536,-0.1788584 -0.755297,-0.179564 -0.280811,-3.44e-4 -0.579967,0.057503 -0.782108,0.2529416 -0.239184,0.231775 -0.277989,0.6406449 -0.08678,0.9136939 0.105834,0.150637 0.277989,0.278342 0.248709,0.475192 -0.02011,0.13335 -0.129822,0.232128 -0.261056,0.261408 -0.223308,0.04974 -0.427566,-0.07726 -0.578203,-0.232833 -0.386997,-0.398639 -0.508,-1.0329329 -0.295275,-1.5462246 0.278342,-0.6720416 1.053042,-1.0417529 1.779764,-1.0177639 0.936978,0.031397 1.820334,0.6498166 2.204509,1.5053026 0.384527,0.8554859 0.269522,1.9057059 -0.26035,2.6804059 -1.176867,1.719791 -4.08305,1.516591 -5.433484,0.06632 -0.846666,-0.910168 -1.307394,-1.79317 -1.242483,-3.4378203 0.04516,-1.16205 0.715786,-2.306461 1.570567,-3.1118527 1.392766,-1.3123332 3.226858,-2.2097999 5.093052,-2.5967971 1.133122,-0.2338917 2.303286,-0.288925 3.454047,-0.1742722 1.014589,0.1008944 2.023534,0.2868083 2.998611,0.5887861 0.484012,0.1509889 0.960262,0.3298472 1.420989,0.5415139 0.405695,0.1862666 0.938389,0.3894666 1.254831,0.7115527 0,-0.5831416 -0.02293,-1.2237861 -0.02293,-1.67005 0,-0.1703916 0.179211,-0.2853972 0.332317,-0.2127249 0.660047,0.3065638 2.223205,1.0449277 3.265664,1.5215305 1.397352,0.6385277 1.496483,2.1448887 1.545166,3.4801527 0.0011,0.029633 0.0021,0.060678 -0.01093,0.087136 -0.04374,0.09137 -0.2794,0.066675 -0.36583,0.067733 -0.167217,0.00177 -0.419453,7.144e-4 -0.585964,0.00811 -0.333728,0.014817 -0.658636,0.00847 -0.992364,-0.00811 -0.617008,-0.029986 -1.213203,-0.3048 -1.612547,-0.6392333 -0.03986,-0.033161 -0.168628,-0.06985 -0.229306,-0.00706 -0.06315,0.065264 -0.04198,0.1668638 -0.0074,0.2017888 0.228953,0.2310696 0.477308,0.3806473 0.766233,0.5298723 0.366889,0.1883833 0.766939,0.2360083 1.172633,0.2596443 0.434623,0.025752 0.872067,0.019402 1.305278,-0.025048 0.36195,-0.037042 0.455436,-0.062089 0.09842,0.2035527 -0.313972,0.2328333 -0.677686,0.4004027 -1.047044,0.5245807 -0.529167,0.1802693 -1.08832,0.269522 -1.646767,0.2850443 -0.338314,0.00917 -0.676628,-0.00882 -1.012472,-0.052211 -0.173214,-0.021873 -0.345722,-0.05327 -0.519994,-0.070908 -0.141464,-0.01411 -0.28822,-0.04057 -0.429331,-0.010231 -0.127353,0.027869 -0.246239,0.097014 -0.326672,0.201436 -0.11042,0.1439334 -0.14852,0.5397495 -0.08467,0.7111995 0.123472,0.33267 0.394406,0.525992 0.680508,0.696384 0.309739,0.18415 0.717198,0.246944 0.796573,0.599369 0.01658,0.07373 -0.642056,0.0755 -0.716845,0.07444 h -0.877005 c 0,0 -0.476956,0.01129 -0.662164,-0.05609 -0.0063,-0.0018 -0.01093,-0.0046 -0.01658,-0.0074 -0.101256,-0.05432 -0.145,-0.189436 -0.17922,-0.291742 -0.04868,-0.144286 -0.134761,-0.288219 -0.23883,-0.437797 -0.198261,-0.282222 -0.502709,-0.591961 -0.81915,-0.709084 m 5.998987,-5.1152742 c -0.908403,-0.2130777 -1.724731,0.6032501 -1.5113,1.5112999 0.108302,0.4628446 0.475544,0.8300863 0.938389,0.9387416 0.908402,0.2134307 1.725436,-0.6039553 1.511652,-1.512358 -0.109008,-0.4628446 -0.47625,-0.8297335 -0.938741,-0.9376835 m 0.439914,1.1560528 c -0.131939,-0.1361723 -0.34925,-0.1361723 -0.481189,0 -0.148167,0.147814 -0.130528,0.4028721 0.05362,0.5249334 0.112183,0.074436 0.261761,0.074436 0.373944,0 0.183798,-0.1220613 0.201436,-0.3771194 0.05362,-0.5249334"
       style="fill:#31ba78;fill-opacity:1;fill-rule:nonzero;stroke:none;stroke-width:0.352777"
       id="path144" />
  </g>
</svg>
