<?xml version="1.0" encoding="UTF-8" standalone="no"?>
<svg
   xmlns:dc="http://purl.org/dc/elements/1.1/"
   xmlns:cc="http://creativecommons.org/ns#"
   xmlns:rdf="http://www.w3.org/1999/02/22-rdf-syntax-ns#"
   xmlns:svg="http://www.w3.org/2000/svg"
   xmlns="http://www.w3.org/2000/svg"
   xmlns:sodipodi="http://sodipodi.sourceforge.net/DTD/sodipodi-0.dtd"
   xmlns:inkscape="http://www.inkscape.org/namespaces/inkscape"
   version="1.1"
   viewBox="0 0 256 256"
   id="svg895"
   sodipodi:docname="Tumbleweed.svg"
   inkscape:version="1.0.1 (3bc2e813f5, 2020-09-07)">
  <metadata
     id="metadata901">
    <rdf:RDF>
      <cc:Work
         rdf:about="">
        <dc:format>image/svg+xml</dc:format>
        <dc:type
           rdf:resource="http://purl.org/dc/dcmitype/StillImage" />
        <dc:title></dc:title>
      </cc:Work>
    </rdf:RDF>
  </metadata>
  <defs
     id="defs899" />
  <sodipodi:namedview
     pagecolor="#ffffff"
     bordercolor="#666666"
     borderopacity="1"
     objecttolerance="10"
     gridtolerance="10"
     guidetolerance="10"
     inkscape:pageopacity="0"
     inkscape:pageshadow="2"
     inkscape:window-width="1424"
     inkscape:window-height="937"
     id="namedview897"
     showgrid="false"
     inkscape:zoom="1.4355469"
     inkscape:cx="77.678642"
     inkscape:cy="172.96019"
     inkscape:window-x="59"
     inkscape:window-y="106"
     inkscape:window-maximized="0"
     inkscape:current-layer="svg895"
     inkscape:document-rotation="0"
     showguides="true"
     inkscape:guide-bbox="true">
    <sodipodi:guide
       position="129.64396,268.23267"
       orientation="1,0"
       id="guide844" />
    <sodipodi:guide
       position="174.14966,124.34286"
       orientation="0,-1"
       id="guide846" />
  </sodipodi:namedview>
  <path
     fill="#35b9ab"
     d="m 184.7077,82.335116 c -9.5544,0 -18.84322,2.761071 -27.11543,7.475672 -8.04581,4.582564 -15.05758,10.799672 -21.3031,17.590122 a 151.99307,151.99306 0 0 0 -7.11846,8.35273 241.00419,241.00419 0 0 0 -6.38482,8.46112 c -1.05582,1.45454 -2.10506,2.91326 -3.15651,4.37338 -2.09635,2.91257 -4.2297,5.82723 -6.67,8.46599 a 186.65361,186.65361 0 0 1 -6.95302,7.12474 c -5.92984,5.76261 -12.258095,11.24027 -19.248105,15.68455 -5.52714,3.5137 -11.99251,6.86202 -18.70389,6.86202 -17.9964,0 -34.129375,-14.2696 -34.129375,-35.9885 0,-21.71677 15.512567,-33.506759 34.129375,-33.506759 10.78652,0 20.3235,4.602019 29.5775,12.564869 l -4.95246,5.09405 12.112255,3.0613 12.11008,3.0599 -3.40467,-12.01863 -3.40468,-12.01862 -5.41829,5.57497 C 95.206805,94.079929 83.440655,87.301298 68.674785,87.301298 c -24.202732,0 -44.058205,17.373982 -44.058205,44.056252 0,25.4411 19.855473,44.05349 42.196956,44.05349 9.243099,0 18.192329,-2.75344 26.127099,-7.42565 7.114105,-4.19406 13.324765,-9.72596 19.026065,-15.66089 1.92439,-2.0008 3.79435,-4.05301 5.65123,-6.11427 2.40548,-2.6749 4.66509,-5.32895 6.68089,-8.36593 l 2.658,-4.00089 c 1.6305,-2.4532 3.13691,-4.88487 4.88495,-7.27065 3.21964,-4.3977 6.59382,-8.68629 10.22488,-12.75043 6.09096,-6.82032 12.99171,-13.166 21.12243,-17.471277 6.45014,-3.415722 13.58816,-5.32895 20.89819,-5.32895 25.44358,0 39.71313,17.684647 39.71313,40.332667 0,21.09827 -13.65133,38.47228 -37.23146,38.47228 -13.47716,0 -25.29336,-3.65479 -37.74085,-14.41693 l 5.7666,-7.01217 -12.32123,-2.04803 -12.32341,-2.04875 4.38644,11.69617 4.3908,11.69617 4.9002,-5.95579 c 12.06216,10.85457 25.2128,18.01821 42.32102,18.01821 28.54131,0 47.15595,-21.71887 47.15595,-49.02107 0,-28.54406 -19.23289,-48.399744 -48.39678,-48.399744"
     id="path833"
     style="stroke-width:1.62881" />
</svg>
