<?xml version="1.0" encoding="UTF-8" standalone="no"?>
<!-- Created with Inkscape (http://www.inkscape.org/) -->

<svg
   width="300"
   height="300"
   viewBox="0 0 79.375 79.374999"
   version="1.1"
   id="svg1"
   sodipodi:docname="Tumbleweed.svg"
   inkscape:version="1.4.4 (dcaf3e7d9e, 2026-05-05)"
   xmlns:inkscape="http://www.inkscape.org/namespaces/inkscape"
   xmlns:sodipodi="http://sodipodi.sourceforge.net/DTD/sodipodi-0.dtd"
   xmlns="http://www.w3.org/2000/svg"
   xmlns:svg="http://www.w3.org/2000/svg">
  <sodipodi:namedview
     id="namedview1"
     pagecolor="#ffffff"
     bordercolor="#000000"
     borderopacity="0.25"
     inkscape:showpageshadow="2"
     inkscape:pageopacity="0.0"
     inkscape:pagecheckerboard="0"
     inkscape:deskcolor="#d1d1d1"
     inkscape:document-units="mm"
     inkscape:zoom="1.4339764"
     inkscape:cx="147.14329"
     inkscape:cy="156.20899"
     inkscape:window-width="1536"
     inkscape:window-height="891"
     inkscape:window-x="0"
     inkscape:window-y="0"
     inkscape:window-maximized="1"
     inkscape:current-layer="layer1" />
  <defs
     id="defs1" />
  <g
     inkscape:label="Layer 1"
     inkscape:groupmode="layer"
     id="layer1">
    <path
       d="M 23.736804,5.1494845 C 13.633845,5.1253587 5.4062737,13.352785 5.430558,23.455759 c 0.023996,10.102973 8.27076,18.348388 18.373732,18.372672 l 4.542203,0.01065 -0.0092,-7.69e-4 c 0.004,0 0.0053,-1.3e-5 0.0066,0 h 0.0013 c 4.12797,0.0092 7.730385,0.01776 9.485925,0.02174 0.0053,2.408897 0.02214,10.15263 0.03128,14.027016 0.02413,10.102972 8.269701,18.349461 18.37266,18.373732 10.102999,0.02413 18.330559,-8.203287 18.306275,-18.306274 -0.02413,-10.102959 -8.270748,-18.348362 -18.373747,-18.372659 -1.184174,-0.0026 -2.438192,-0.0053 -4.286644,-0.0092 -4.198915,-0.0092 -7.959313,-0.01776 -9.739125,-0.02161 -0.0053,-2.408896 -0.02214,-10.152642 -0.03128,-14.027027 C 42.086279,13.421026 33.839722,5.1745367 23.736788,5.1502524 Z m -0.0092,4.3216372 c 0.595453,0.0013 1.180634,0.044146 1.756376,0.1169136 V 25.149262 H 9.8632138 C 9.794552,24.590222 9.7549143,24.022208 9.7533288,23.444743 9.734634,15.676552 15.959262,9.4522719 23.726909,9.471162 Z m 6.077974,1.3874793 c 4.717618,2.268968 7.971734,7.084757 7.985203,12.674201 0.0066,3.867797 0.02598,11.581572 0.03128,14.006495 -2.424736,-0.0053 -10.137517,-0.02201 -14.00485,-0.03142 -5.609496,-0.01352 -10.439376,-3.29168 -12.6986,-8.03703 h 18.68714 V 10.858561 Z m 12.34758,31.011772 c 2.425492,0.0066 10.138604,0.02214 14.006495,0.03128 5.68389,0.01365 10.565072,3.380113 12.783786,8.227586 h -18.61039 v 18.49684 c -4.8054,-2.236035 -8.135314,-7.096644 -8.148796,-12.750311 -0.0092,-3.867798 -0.02598,-11.580499 -0.03141,-14.004878 z m 12.500906,12.578122 h 15.481899 c 0.05434,0.498195 0.08417,1.00392 0.0855,1.516498 0.01869,7.76819 -6.20592,13.992457 -13.973579,13.97358 -0.539236,-7.69e-4 -1.070373,-0.03645 -1.593647,-0.0965 V 54.448217 Z"
       stroke-width="0.315585"
       id="path1-9"
       style="fill:#20caa3;fill-opacity:1" />
  </g>
</svg>
