<?xml version="1.0" encoding="UTF-8" standalone="no"?>
<!-- Created with Inkscape (http://www.inkscape.org/) -->

<svg
   width="400mm"
   height="400mm"
   viewBox="0 0 400 400"
   version="1.1"
   id="svg1"
   sodipodi:docname="Tumbleweed.svg"
   inkscape:version="1.4.3 (0d15f75042, 2025-12-25)"
   xmlns:inkscape="http://www.inkscape.org/namespaces/inkscape"
   xmlns:sodipodi="http://sodipodi.sourceforge.net/DTD/sodipodi-0.dtd"
   xmlns="http://www.w3.org/2000/svg"
   xmlns:svg="http://www.w3.org/2000/svg">
  <sodipodi:namedview
     id="namedview1"
     pagecolor="#ffffff"
     bordercolor="#000000"
     borderopacity="0.25"
     inkscape:showpageshadow="2"
     inkscape:pageopacity="0.0"
     inkscape:pagecheckerboard="0"
     inkscape:deskcolor="#d1d1d1"
     inkscape:document-units="mm"
     inkscape:zoom="0.39108446"
     inkscape:cx="879.6054"
     inkscape:cy="565.09533"
     inkscape:window-width="1920"
     inkscape:window-height="1131"
     inkscape:window-x="0"
     inkscape:window-y="0"
     inkscape:window-maximized="1"
     inkscape:current-layer="layer1" />
  <defs
     id="defs1" />
  <g
     inkscape:label="Layer 1"
     inkscape:groupmode="layer"
     id="layer1">
    <path
       d="m 138.05321,68.092657 c -39.466745,-0.09452 -71.607395,32.045813 -71.512536,71.512593 0.09396,39.46678 32.309365,71.67713 71.776176,71.77202 l 17.74389,0.0412 -0.0338,-0.003 c 0.0135,0 0.0203,-4e-5 0.027,0 h 0.005 c 16.12573,0.0365 30.19839,0.0693 37.05631,0.0849 0.0203,9.41024 0.0866,39.66078 0.12229,54.7959 0.094,39.46679 32.30519,71.68133 71.77193,71.77616 39.46687,0.0945 71.60746,-32.04577 71.5126,-71.51261 -0.094,-39.46675 -32.3093,-71.67706 -71.77617,-71.77197 -4.62594,-0.0104 -9.5247,-0.0216 -16.74559,-0.0372 -16.40289,-0.0372 -31.09271,-0.0694 -38.04542,-0.0846 -0.0203,-9.41025 -0.0866,-39.66082 -0.1223,-54.79592 -0.0946,-39.46678 -32.30951,-71.681328 -71.77617,-71.776212 z m -0.0338,16.882254 c 2.3261,0.0058 4.61209,0.172496 6.86116,0.456748 V 146.22086 H 83.859074 c -0.26824,-2.1839 -0.422959,-4.40282 -0.429041,-6.65864 -0.07304,-30.34609 24.243157,-54.660923 54.587157,-54.587134 z m 23.74329,5.420147 c 18.42915,8.863612 31.14123,27.676262 31.19386,49.511142 0.027,15.10939 0.10137,45.24288 0.1223,54.71575 -9.47213,-0.0216 -39.60175,-0.086 -54.70932,-0.12268 -21.91293,-0.0526 -40.780643,-12.85882 -49.606176,-31.3963 H 161.76381 V 90.394941 Z m 48.23545,121.146012 c 9.4751,0.0257 39.606,0.0864 54.71573,0.1223 22.20388,0.0534 41.27199,13.20424 49.93927,32.14066 h -72.70062 v 72.25704 c -18.77197,-8.73497 -31.78013,-27.7227 -31.83276,-49.80849 -0.0338,-15.10937 -0.10137,-45.2387 -0.12295,-54.70944 z m 48.83421,49.13586 h 60.47936 c 0.21216,1.94621 0.32904,3.92179 0.33378,5.92414 0.073,30.34607 -24.24317,54.66088 -54.58715,54.58713 -2.10652,-0.003 -4.18136,-0.14236 -6.2255,-0.37675 v -60.13538 z"
       stroke-width="1.23282"
       id="path1-9"
       style="fill:#20caa3;fill-opacity:1" />
  </g>
</svg>
